# xmcd
#
# Track frame offsets:
#	150
#	14124
#	33767
#	55456
#	73420
#	88783
#	104884
#	125658
#	143325
#	161703
#
# Disc length: 2403 seconds
#
# Revision: 0
# Processed by: cddbd v1.5.1PL0 Copyright (c) Steve Scherf et al.
# Submitted via: audiograbber 1.83.01
#
DISCID=9609610a
DTITLE=Patty Loveless - Long Stretch of Lonesome
DYEAR=1900
DGENRE=
TTITLE0=Party Ain't over Yet
TTITLE1=To Have You Back Again
TTITLE2=I Don't Want to Feel Like That
TTITLE3=High on Love
TTITLE4=Like Water into Wine
TTITLE5=That's Exactly What I Mean
TTITLE6=You Don't Seem to Miss Me
TTITLE7=Too Many Memories
TTITLE8=Long Stretch of Lonesome
TTITLE9=Where I'm Bound
EXTD=
EXTT0=
EXTT1=
EXTT2=
EXTT3=
EXTT4=
EXTT5=
EXTT6=
EXTT7=
EXTT8=
EXTT9=
PLAYORDER=
